<svg width="100" height="104" viewBox="0 0 100 104" fill="none" xmlns="http://www.w3.org/2000/svg">
<path d="M83.6933 99H17.9706C9.65129 99 3.82776 92.3445 3.82776 84.8571V58.2353H92.0126C94.5084 58.2353 96.1723 59.8992 96.1723 62.395V85.6891C96.1723 93.1765 90.3488 99 83.6933 99Z" fill="#A3C7F0"/>
<path d="M77.8698 103.16H21.2983C9.65126 103.16 0.5 94.0084 0.5 82.3613V29.9496C0.5 18.3025 9.65126 9.15126 21.2983 9.15126H78.7017C90.3487 9.15126 99.5 18.3025 99.5 29.9496V82.3613C98.6681 93.1765 89.5168 103.16 77.8698 103.16ZM21.2983 14.9748C12.979 14.9748 6.32353 21.6303 6.32353 29.9496V82.3613C6.32353 90.6807 12.979 97.3361 21.2983 97.3361H78.7017C87.021 97.3361 93.6765 90.6807 93.6765 82.3613V29.9496C93.6765 21.6303 87.021 14.9748 78.7017 14.9748H21.2983Z" fill="#3B7BC8"/>
<path d="M74.542 25.7899V18.3025C74.542 9.98321 69.5504 3.32774 62.895 3.32774H35.4412C28.7857 3.32774 23.7941 9.98321 23.7941 18.3025V25.7899H74.542Z" fill="#A3C7F0"/>
<path d="M74.542 29.1176H21.2983V26.6219V18.3025C21.2983 8.31933 27.9538 0 36.2731 0H63.7269C72.0462 0 78.7017 8.31933 78.7017 18.3025V28.2857L74.542 29.1176ZM27.1219 22.4622H72.8782V18.3025C72.8782 11.6471 68.7185 6.65546 63.7269 6.65546H35.4412C30.4496 6.65546 26.2899 11.6471 26.2899 18.3025V22.4622H27.1219Z" fill="#3B7BC8"/>
<path d="M86.1891 29.1177H12.979C11.3151 29.1177 9.65125 27.4538 9.65125 25.7899C9.65125 24.1261 11.3151 22.4622 12.979 22.4622H86.1891C87.8529 22.4622 89.5168 24.1261 89.5168 25.7899C89.5168 27.4538 87.8529 29.1177 86.1891 29.1177Z" fill="#3B7BC8"/>
<path d="M34.4429 58.7927L52.4376 72.2284L48.9601 76.8872L30.9488 63.4598L34.4429 58.7927Z" fill="#2767A0"/>
<path d="M44.6091 73.3681L74.3923 41.9876L78.6102 45.9976L48.827 77.3781L44.6091 73.3681Z" fill="#2767A0"/>
</svg>
